<svg xmlns="http://www.w3.org/2000/svg" viewBox="0 0 200 200" enable-background="new 0 0 200 200"><path fill="#fff" d="M21.53 90.068l2.776 2.777c3.344 3.343 3.582 6.926.358 10.151-3.223 3.225-6.806 2.984-10.149-.359l-10.868-10.866c-3.344-3.344-3.583-6.926-.358-10.15s6.807-2.985 10.151.358l2.029 2.031-3.104 3.104-2.239-2.239c-1.493-1.493-2.718-1.403-3.762-.358-1.045 1.044-1.134 2.269.358 3.761l11.285 11.284c1.492 1.495 2.687 1.374 3.731.329 1.045-1.045 1.165-2.24-.328-3.732l-2.985-2.986 3.105-3.105z"/><rect x="48.971" y="49.782" transform="matrix(-.707 .707 -.707 -.707 267.007 111.743)" fill="#1F9FC7" width="122.779" height="122.777"/><polygon fill="#0792BF" points="110.361,24.353 23.545,111.17 110.361,197.988 110.361,197.986 110.361,24.354"/><path fill="#fff" d="M14.423 80.994c-3.343-3.344-3.493-7.016-.269-10.24 3.225-3.225 6.896-3.075 10.24.269l10.867 10.867c3.344 3.343 3.494 7.015.27 10.239-3.225 3.225-6.897 3.075-10.24-.269l-10.868-10.866zm14.361 7.792c1.493 1.493 2.716 1.403 3.762.358 1.044-1.045 1.134-2.269-.359-3.762l-11.285-11.284c-1.493-1.493-2.717-1.403-3.761-.359-1.045 1.045-1.135 2.269.358 3.762l11.285 11.285z"/><polygon fill="#fff" points="29.441,67.469 44.577,82.605 41.621,85.561 20.723,64.663 24.843,60.543 40.726,69.679 28.217,57.169 31.143,54.244 52.041,75.142 48.667,78.515"/><path fill="#fff" d="M32.754 52.632l5.193-5.195c3.284-3.284 6.718-3.074 10.062.269l10.568 10.568c3.344 3.344 3.552 6.777.269 10.061l-5.194 5.195-20.898-20.898zm6.269-.298l14.927 14.926 1.852-1.85c1.045-1.045 1.134-2.209-.358-3.703l-10.867-10.866c-1.493-1.493-2.657-1.403-3.703-.358l-1.851 1.851z"/><rect x="53.957" y="35.223" transform="matrix(-.707 .707 -.707 -.707 131.428 45.538)" fill="#fff" width="4.643" height="29.555"/><polygon fill="#fff" points="48.158,37.228 58.309,27.078 61.294,30.062 57.861,33.497 75.773,51.409 72.49,54.692 54.578,36.78 51.144,40.214"/><rect x="68.764" y="20.419" transform="matrix(-.707 .707 -.707 -.707 146.243 9.827)" fill="#fff" width="4.644" height="29.558"/><path fill="#fff" d="M68.668 26.75c-3.344-3.344-3.493-7.016-.269-10.24 3.225-3.224 6.896-3.075 10.24.268l10.867 10.868c3.344 3.344 3.493 7.015.269 10.24-3.224 3.224-6.896 3.075-10.24-.269l-10.867-10.867zm14.359 7.792c1.493 1.492 2.717 1.403 3.761.358 1.044-1.044 1.136-2.269-.357-3.762l-11.285-11.284c-1.492-1.493-2.717-1.402-3.762-.358-1.044 1.045-1.133 2.269.359 3.762l11.284 11.284z"/><polygon fill="#fff" points="83.685,13.226 98.82,28.362 95.864,31.317 74.967,10.419 79.087,6.3 94.969,15.435 82.46,2.926 85.386,0 106.284,20.898 102.91,24.272"/><rect x="72.379" y="76.915" fill="#E6E6E6" width="11.003" height="70.015"/><rect x="109.963" y="136.926" fill="#fff" width="6.59" height="10.004"/><polygon fill="#E6E6E6" points="110.297,102.545 110.297,76.915 85.682,76.915 85.682,86.917 105.585,86.917 84.682,137.127 84.682,146.93 110.297,146.93 110.297,136.926 95.983,136.926"/><polygon fill="#fff" points="116.887,86.716 116.887,76.915 110.297,76.915 110.297,102.545"/><path fill="#fff" d="M141.393 146.93c-.601-1.801-1-2.9-1-8.602v-11.004c0-6.501-2.201-8.902-7.201-8.902h-3.801v28.508h-11.002v-70.015h16.604c11.402 0 16.303 5.302 16.303 16.104v5.502c0 7.202-2.302 11.903-7.202 14.202 5.503 2.301 7.304 7.603 7.304 14.903v10.802c0 3.4.099 5.901 1.199 8.502h-11.204zm-12.002-60.013v21.504h4.299c4.102 0 6.603-1.8 6.603-7.401v-6.9c0-5.002-1.699-7.203-5.601-7.203h-5.301z"/></svg>