<?xml version="1.0" encoding="utf-8"?>
<!DOCTYPE svg PUBLIC "-//W3C//DTD SVG 1.1//EN" "http://www.w3.org/Graphics/SVG/1.1/DTD/svg11.dtd">
<svg version="1.1" id="Layer_1" xmlns="http://www.w3.org/2000/svg" xmlns:xlink="http://www.w3.org/1999/xlink" x="0px" y="0px" viewBox="0 0 286.252 43.124" enable-background="new 0 0 286.252 43.124"
	 xml:space="preserve">
<g>
	<path fill="#FFFFFF" d="M0.9,35.414c0.06,3.72,3.66,5.58,6.9,6.18c3.18,0.6,7.62,0.6,10.739-0.42c2.76-0.96,4.86-2.76,4.86-5.76
		h0.96c0,3.36-2.28,5.52-5.58,6.6c-3.12,1.02-7.92,1.08-11.16,0.48c-3.72-0.72-7.56-2.88-7.62-7.08v-0.54V8.354v-0.48
		c0.06-4.26,3.9-6.419,7.62-7.14c3.24-0.6,8.04-0.54,11.16,0.48c3.3,1.14,5.58,3.3,5.58,6.66h-0.96c0-3.06-2.1-4.86-4.86-5.76
		c-3.12-1.02-7.56-1.08-10.739-0.48c-3.24,0.6-6.84,2.52-6.9,6.24V35.414z"/>
	<path fill="#FFFFFF" d="M30.18,7.515c0-10.02,24.359-10.02,24.359,0v28.139c0,9.96-24.359,9.96-24.359,0V7.515z M53.519,7.515
		c0-4.56-5.64-6.6-11.28-6.6c-5.52,0.06-11.099,2.1-11.099,6.6v28.079c0,4.56,5.58,6.54,11.099,6.6c5.64,0,11.28-1.98,11.28-6.6
		V7.515z"/>
	<path fill="#FFFFFF" d="M85.138,42.553c-0.54,0-1.08,0-1.62,0L61.559,1.095v41.458h-0.9V0.495c0.48,0,1.02,0,1.56,0l21.959,41.398
		V0.495h0.96V42.553z"/>
	<path fill="#FFFFFF" d="M91.438,42.553c0-14.04,0-28.079,0-42.058h14.159c4.38,0.06,10.32,2.16,10.32,7.379v27.239
		c0,5.459-6.24,7.439-10.74,7.439H91.438z M114.958,31.454V7.875c0-4.56-5.64-6.419-9.42-6.419H92.398v40.078h12.779
		c3.36,0,8.28-1.14,9.479-4.74C114.958,35.894,114.958,32.474,114.958,31.454z"/>
	<path fill="#FFFFFF" d="M123.777,0.495v42.058h-0.899c0-14.04,0-28.079,0-42.058H123.777z"/>
	<path fill="#FFFFFF" d="M154.195,0.555v0.96h-12.179v41.038h-0.96V1.515h-12.18v-0.96H154.195z"/>
	<path fill="#FFFFFF" d="M160.315,0.495v42.058h-0.899c0-14.04,0-28.079,0-42.058H160.315z"/>
	<path fill="#FFFFFF" d="M167.275,7.515c0-10.02,24.359-10.02,24.359,0v28.139c0,9.96-24.359,9.96-24.359,0V7.515z M190.615,7.515
		c0-4.56-5.641-6.6-11.28-6.6c-5.52,0.06-11.1,2.1-11.1,6.6v28.079c0,4.56,5.58,6.54,11.1,6.6c5.64,0,11.28-1.98,11.28-6.6V7.515z"
		/>
	<path fill="#FFFFFF" d="M222.233,42.553c-0.54,0-1.079,0-1.619,0l-21.96-41.458v41.458h-0.899V0.495c0.479,0,1.02,0,1.56,0
		l21.959,41.398V0.495h0.96V42.553z"/>
	<path fill="#FF6F65" d="M230.214,0.495v42.058h-0.899c0-14.04,0-28.079,0-42.058H230.214z"/>
	<path fill="#FF6F65" d="M255.473,0.495c3.06,0,4.319,1.68,4.319,4.8c0,0.72,0,1.5,0,2.22c-0.18,11.22-22.619,15.839-22.919,27.899
		v2.28c0,2.76,0.72,3.9,3.42,3.9h19.68v0.96h-19.68c-3.3,0-4.319-1.44-4.319-4.86v-2.28c0-12.419,22.919-17.639,22.919-27.839v-2.28
		c0-2.58-0.9-3.9-3.54-3.9h-18.6v-0.9H255.473z"/>
	<path fill="#FF6F65" d="M275.513,0.555c4.439,0,10.739,1.979,10.739,7.379v9.479c0,4.2-3.3,6.3-6.96,7.08
		c3.48,0.66,6.96,2.7,6.96,6.839v11.22h-0.899v-11.22c0-4.919-5.88-6.419-9.84-6.419h-9.66v17.639h-0.899V0.555H275.513z
		 M275.513,24.014c4.08,0,9.899-1.5,9.84-6.6V7.935c0-4.92-5.82-6.479-9.72-6.479h-9.78v22.559H275.513z"/>
</g>
</svg>
